
<svg width="651px" height="70px" viewBox="0 0 651 70" version="1.1" xmlns="http://www.w3.org/2000/svg" xmlns:xlink="http://www.w3.org/1999/xlink">
    <g id="Page-1" stroke="none" stroke-width="1" fill="none" fill-rule="evenodd">
        <g id="Artboard" transform="translate(-75.000000, -183.000000)" fill="#FFFFFF">
            <path d="M75,251 L98.3317972,184 L112.387097,184 L136,251 L121.850998,251 L117.353303,236.756643 L93.1781874,236.756643 L88.7741935,251 L75,251 Z M102.095238,207.443038 L96,227 L114,227 L107.904762,207.443038 C106.761905,203.835443 105.142857,197 105.142857,197 L104.952381,197 C104.952381,197 103.238095,203.835443 102.095238,207.443038 Z M163,251 L163,184 L176.565489,184 L176.565489,239.661538 L208,239.661538 L208,251 L163,251 Z M224,195.432168 L224,184 L278,184 L278,195.432168 L257.808696,195.432168 L257.808696,251 L244.191304,251 L244.191304,195.432168 L224,195.432168 Z M341,234 L341,223 L366,223 L366,234 L341,234 Z M459.9523,253 C441.775128,253 431.468484,244.908602 431,230.701613 L444.30494,230.701613 C445.241908,238.793011 449.833049,241.991935 459.390119,241.991935 C466.32368,241.991935 472.413969,239.545699 472.413969,233.336022 C472.413969,226.75 466.042589,225.432796 455.829642,223.080645 C443.836457,220.352151 432.873935,217.153226 432.873935,203.134409 C432.873935,189.86828 443.649063,183 458.546848,183 C473.632027,183 483.376491,190.432796 484.407155,203.981183 L471.383305,203.981183 C470.633731,197.206989 465.386712,193.819892 458.453152,193.819892 C451.144804,193.819892 446.366269,196.924731 446.366269,201.723118 C446.366269,207.180108 451.051107,208.77957 460.982964,210.943548 C474.756388,213.954301 486,217.247312 486,231.736559 C486,245.379032 475.037479,253 459.9523,253 Z M509,195.432168 L509,184 L563,184 L563,195.432168 L542.808696,195.432168 L542.808696,251 L529.191304,251 L529.191304,195.432168 L509,195.432168 Z M591,251 L591,184 L621.659612,184 C634.559083,184 643.15873,191.496503 643.15873,202.647552 C643.15873,210.518881 639.513228,216.516084 630.91358,218.858741 L630.91358,219.13986 C637.082892,220.92028 640.261023,224.481119 641.102293,232.633566 C642.037037,242.097902 641.663139,249.313287 644,250.344056 L644,251 L631.007055,251 C629.324515,250.25035 629.137566,242.753846 628.57672,235.538462 C628.015873,228.229371 623.902998,224.106294 615.4903,224.106294 L604.553792,224.106294 L604.553792,251 L591,251 Z M604,195 L604,214 L618.154412,214 C625.415441,214 629,210.085427 629,204.643216 C629,199.105528 625.599265,195 618.522059,195 L604,195 Z M673,251 L673,184 L702.454867,184 C710.240708,184 716.056637,186.248951 719.99646,190.278322 C723.748673,194.12028 726,199.367832 726,205.552448 C726,218.202797 717.651327,226.73007 703.580531,226.73007 L687.070796,226.73007 L687.070796,251 L673,251 Z M687,196 L687,216 L701.097744,216 C708.240602,216 712,212.037736 712,205.90566 C712,199.584906 708.052632,196 701.285714,196 L687,196 Z" id="ALT---STRP"></path>
        </g>
    </g>
</svg>